{"title":"Ikki tousen","uid":9501287,"size":1179481978,"categoryP":"video","categoryS":"tv_shows","magnet":"?xt=urn:btih:365136f25143ecad690a18e98a092aeeb969eeb3&amp;dn=Ikki+tousen&amp;tr=udp%3A%2F%2Ftracker.openbittorrent.com%3A80&amp;tr=udp%3A%2F%2Fopen.demonii.com%3A1337&amp;tr=udp%3A%2F%2Ftracker.coppersurfer.tk%3A6969&amp;tr=udp%3A%2F%2Fexodus.desync.com%3A6969","seeders":2,"leechers":1,"uploader":"p7trick","files":-1,"time":1390234808,"description":"downloaded from justdubs\n\nIkki tousen eps 1-13 ENGLISH DUBBED\n_________________________________________________________\n\nFormat                                   : MPEG-4\nFormat profile                           : Base Media\nCodec ID                                 : isom\nFile size                                : 94.2 MiB\nDuration                                 : 24mn 18s\nOverall bit rate mode                    : Variable\nOverall bit rate                         : 542 Kbps\n\nVideo\nID                                       : 1\nFormat                                   : AVC\nFormat/Info                              : Advanced Video Codec\nFormat profile                           : &lt;a class=&quot;__cf_email__&quot; href=&quot;/cdn-cgi/l/email-protection&quot; data-cfemail=&quot;96dbf7fff8d6daa7b8a5&quot;&gt;[email&amp;#160;protected]&lt;/a&gt;&lt;script cf-hash='f9e31' type=&quot;text/javascript&quot;&gt;\n/* &lt;![CDATA[ */!function(){try{var t=&quot;currentScript&quot;in document?document.currentScript:function(){for(var t=document.getElementsByTagName(&quot;script&quot;),e=t.length;e--;)if(t[e].getAttribute(&quot;cf-hash&quot;))return t[e]}();if(t&amp;&amp;t.previousSibling){var e,r,n,i,c=t.previousSibling,a=c.getAttribute(&quot;data-cfemail&quot;);if(a){for(e=&quot;&quot;,r=parseInt(a.substr(0,2),16),n=2;a.length-n;n+=2)i=parseInt(a.substr(n,2),16)^r,e+=String.fromCharCode(i);e=document.createTextNode(e),c.parentNode.replaceChild(e,c)}}}catch(u){}}();/* ]]&gt; */&lt;/script&gt;\nFormat settings, CABAC                   : Yes\nFormat settings, ReFrames                : 2 frames\nCodec ID                                 : avc1\nCodec ID/Info                            : Advanced Video Coding\nDuration                                 : 24mn 18s\nBit rate mode                            : Variable\nBit rate                                 : 414 Kbps\nMaximum bit rate                         : 2 326 Kbps\nWidth                                    : 480 pixels\nHeight                                   : 272 pixels\nDisplay aspect ratio                     : 16:9\nFrame rate mode                          : Constant\nFrame rate                               : 29.970 fps\nColor space                              : YUV\nChroma subsampling                       : 4:2:0\nBit depth                                : 8 bits\nScan type                                : Progressive\nBits/(Pixel*Frame)                       : 0.106\nStream size                              : 71.9 MiB (76%)\nTitle                                    : ÃŒ\u000b\f\nWriting library                          : x264 core 124\n\nAudio\nID                                       : 2\nFormat                                   : AAC\nFormat/Info                              : Advanced Audio Codec\nFormat profile                           : LC\nCodec ID                                 : 40\nDuration                                 : 24mn 18s\nBit rate mode                            : Variable\nBit rate                                 : 126 Kbps\nMaximum bit rate                         : 267 Kbps\nChannel count                            : 2 channels\nChannel positions                        : Front: L R\nSampling rate                            : 44.1 KHz\nCompression mode                         : Lossy\nStream size                              : 21.9 MiB (23%)\n\n_________________________________________________________\n\nSummary:\nSeven schools are constantly at war with each other, and the students within - both male and female - have become skilled fighters and constantly battle with rival schools. Their lives and fates are guided by strange jewels that contain the spirits and destinies of warriors from the Sangokushi period. One girl, Sonsaku Hakufu, has recently moved to Japan and is apparently destined to unite the schools as her counterpart united seven countries long ago. But, like all heroes, there is a darker side to her fate, and as always there is a constant struggle by those around her to break the chains of their own destinies and make their own lives.\n\nFor updates/requests:\nTwitter - @p7tricktorrent\nFacebook - /p7tricktorrent\nTPB - /user/p7trick/\nKAT - /user/iPirate7\n_________________________________________________________\n\nSEED!\n\nshare ratio:\n&quot;Scumbag = 0.1:1\nLeecher = 0.999:1\nMinimum = 1:1\nGood = 3:1\nGreat = 5:1\nAwesome = 10:1\n1337 = 100:1&quot;\t\t","torrent":{"xt":"urn:btih:365136f25143ecad690a18e98a092aeeb969eeb3","amp;dn":"Ikki+tousen","amp;tr":["udp%3A%2F%2Ftracker.openbittorrent.com%3A80","udp%3A%2F%2Fopen.demonii.com%3A1337","udp%3A%2F%2Ftracker.coppersurfer.tk%3A6969","udp%3A%2F%2Fexodus.desync.com%3A6969"],"infoHash":"365136f25143ecad690a18e98a092aeeb969eeb3","infoHashBuffer":{"type":"Buffer","data":[54,81,54,242,81,67,236,173,105,10,24,233,138,9,42,238,185,105,238,179]},"announce":[],"urlList":[]}}